<?xml version="1.0" encoding="utf-8"?>
<!-- Generator: Adobe Illustrator 25.0.1, SVG Export Plug-In . SVG Version: 6.00 Build 0)  -->
<svg version="1.1" id="Capa_1" xmlns="http://www.w3.org/2000/svg" xmlns:xlink="http://www.w3.org/1999/xlink" x="0px" y="0px"
	 viewBox="0 0 450 450" style="enable-background:new 0 0 450 450;" xml:space="preserve">
<style type="text/css">
	.st0{fill:#84BCEC;}
</style>
<g id="esemtia">
	<g id="Capa_10">
		<path class="st0" d="M322.2,155.1L322.2,155.1c-12.6-43.3-57.8-68.3-101.1-55.8l-29.2,8.3c-59.5,17.1-93.9,79.1-76.8,138.5
			c0,0.1,0.1,0.2,0.1,0.3l12.6,43.4c13.6,47.1,62.9,74.2,110.1,60.6c0.1,0,0.2-0.1,0.3-0.1L346.6,319l-12.5-43.1l-107.8,31.3
			c-23.7,6.9-48.5-6.6-55.5-30.3c0-0.1,0-0.1-0.1-0.2l0,0l100-28.6c39.9-11.4,62.9-53,51.5-92.9
			C322.2,155.2,322.2,155.1,322.2,155.1z M204.2,150.7l29.2-8.3c19.6-5.6,40.1,5.7,45.7,25.3l0,0c4.6,16.1-4.6,32.8-20.6,37.4
			c-0.1,0-0.1,0-0.1,0.1l-100.2,28.6l0,0c-10.3-35.5,10.2-72.7,45.7-83C204,150.8,204.1,150.7,204.2,150.7z"/>
	</g>
</g>
</svg>
