<?xml version="1.0" encoding="utf-8"?>
<!-- Generator: Adobe Illustrator 25.0.1, SVG Export Plug-In . SVG Version: 6.00 Build 0)  -->
<svg version="1.1" id="Capa_1" xmlns="http://www.w3.org/2000/svg" xmlns:xlink="http://www.w3.org/1999/xlink" x="0px" y="0px"
	 viewBox="0 0 450 450" style="enable-background:new 0 0 450 450;" xml:space="preserve">
<style type="text/css">
	.st0{fill:#FFFFFF;stroke:#000000;stroke-miterlimit:10;}
	.st1{fill:#505050;}
</style>
<circle class="st0" cx="225" cy="225" r="200.5"/>
<g id="github">
	<path class="st1" d="M225,29.3c-107.7,0-195,87.3-195,195c0,83.9,53.7,158.4,133.4,185c9.8,1.8,13.3-4.2,13.3-9.4
		c0-4.6-0.2-20-0.3-36.3c-54.2,11.8-65.7-23-65.7-23C101.8,318,89.1,312,89.1,312c-17.7-12,1.3-11.8,1.3-11.8
		c19.6,1.4,29.9,20.1,29.9,20.1c17.4,29.8,45.6,21.2,56.8,16.2c1.8-12.6,6.8-21.2,12.4-26.1c-43.3-4.9-88.8-21.6-88.8-96.4
		c0-21.3,7.6-38.7,20.1-52.3c-2-4.9-8.7-24.8,1.9-51.6c0,0,16.4-5.2,53.6,20c32-8.7,65.7-8.7,97.7,0c37.2-25.2,53.6-20,53.6-20
		c10.6,26.9,3.9,46.7,1.9,51.6c12.5,13.6,20.1,31,20.1,52.3c0,74.9-45.6,91.4-89,96.2c7,6,13.2,17.9,13.2,36.1
		c0,26.1-0.2,47.1-0.2,53.5c0,5.2,3.5,11.3,13.4,9.4c79.6-26.6,133.2-101.1,133.2-185C420,116.6,332.7,29.3,225,29.3z M103,307
		c-0.4,1-2,1.3-3.3,0.6s-2.2-2-1.8-2.9s2-1.3,3.4-0.6S103.5,306.1,103,307z M112.6,315.6c-0.9,0.9-2.8,0.5-4-0.9s-1.5-3.2-0.6-4
		s2.7-0.5,4,0.9S113.6,314.7,112.6,315.6L112.6,315.6z M119.2,326.5c-1.2,0.8-3.2,0-4.4-1.7s-1.2-3.8,0-4.6s3.1-0.1,4.4,1.6
		S120.4,325.7,119.2,326.5L119.2,326.5z M130.3,339.2c-1.1,1.2-3.3,0.9-5-0.8s-2.2-3.8-1.1-5s3.4-0.9,5,0.7S131.5,338.1,130.3,339.2
		L130.3,339.2z M144.7,343.5c-0.5,1.5-2.7,2.2-4.9,1.6s-3.6-2.5-3.2-4s2.7-2.3,4.9-1.6S145.2,342,144.7,343.5L144.7,343.5z
		 M161.1,345.3c0,1.6-1.8,2.9-4.1,3s-4.2-1.2-4.2-2.8s1.8-2.9,4.2-3S161.1,343.7,161.1,345.3L161.1,345.3z M177.1,344.7
		c0.3,1.6-1.3,3.2-3.6,3.6s-4.4-0.6-4.6-2.1s1.4-3.2,3.6-3.6S176.9,343.1,177.1,344.7L177.1,344.7z"/>
</g>
</svg>
