<?xml version="1.0" encoding="utf-8"?>
<!-- Generator: Adobe Illustrator 25.0.1, SVG Export Plug-In . SVG Version: 6.00 Build 0)  -->
<svg version="1.1" id="Capa_1" xmlns="http://www.w3.org/2000/svg" xmlns:xlink="http://www.w3.org/1999/xlink" x="0px" y="0px"
	 viewBox="0 0 700 700" style="enable-background:new 0 0 700 700;" xml:space="preserve">
<style type="text/css">
	.st0{fill:#FFD35C;}
	.st1{fill:#2E2E24;}
</style>
<rect x="96.8" y="169" class="st0" width="494.6" height="358.5"/>
<g transform="translate(0.000000,700.000000) scale(0.100000,-0.100000)">
	<path class="st1" d="M1902.1,6340.6c-1.6-1.6-21.2-4.9-44-7.3c-144.2-15.5-367.5-101-519.8-198.8
		C941.5,5878.6,693,5482.6,669.3,5064.6c-24.4-422-24.4-2786.5-0.8-3116.5c10.6-141.8,14.7-171.1,42.4-264.8
		c110.8-382.1,382.9-704,749.6-884c95.3-46.4,163.8-72.5,296.6-113.3l86.4-26.1l1665.4,0.8l1665.4,0.8l134.4,45.6
		c312.9,105.1,507.6,232.2,703.1,457.9c133.6,154.8,260.7,407.4,294.9,587.4c37.5,193.1,40.7,342.2,40.7,1735.5
		c0,1103.2-4.1,1457.6-17.1,1580.6c-2.4,22.8-4.9,46.4-4.9,53c0.8,44.8-36.7,210.2-60.3,275.4c-39.1,104.3-124.7,268.1-180.9,347.1
		c-91.3,127.9-306.4,325.1-445.7,409c-69.3,41.6-173.5,88.8-309.6,140.1l-130.4,48.9L3552,6343
		C2646,6343,1903.7,6342.2,1902.1,6340.6z M5272,4680.1c3.3-2.4,4.9-111.6,4.9-241.2l-0.8-236.3h168.7c93.7-0.8,188.2-0.8,210.2-0.8
		l40.7-0.8l-1.6-173.5c-0.8-94.5-1.6-188.2-1.6-207l-0.8-35h-207.8H5276l0.8-729.2c0-400.9-1.6-732.5-4.1-735.7
		c-2.4-4.1-400.9-6.5-430.2-2.4c-2.4,0.8-4.9,315.3-5.7,699.9c0,383.8,0,713.7,0,733.3l-0.8,34.2h-185.8h-185v207.8V4201l28.5,0.8
		c15.5,0,99.4,0,185.8,0c141,0,156.4,1.6,157.3,13.9c0,7.3,0,114.9,0.8,237.9c0,123,3.3,225.7,6.5,228.1
		C4854,4687.4,5266.3,4685.8,5272,4680.1z M2574.3,4216.5c70.1-12.2,157.3-46.4,210.2-82.3c65.2-43.2,146.7-128.7,174.4-181.7
		c13-24.4,26.9-44.8,30.1-44.8c12.2,0,56.2,34.2,123.8,97c165.4,152.4,327.5,222.4,521.5,224.1c217.5,3.3,327.5-39.9,459.5-178.4
		c92.9-98.6,129.5-162.1,150.7-267.2c28.5-138.5,33.4-252.6,41.6-910.1c3.3-230.6,6.5-449.8,7.3-486.4c2.4-61.9,0.8-66.8-14.7-69.3
		c-14.7-2.4-380.5-1.6-432.6,0.8c-17.1,0.8-17.1,3.3-17.9,406.6c0,395.2-6.5,739-15.5,836.8c-8.1,96.1-78.2,198.8-163,237.9
		c-31.8,14.7-62.7,20.4-126.3,23.6c-194.7,11.4-307.2-47.3-406.6-211.8l-43.2-72.5l-2.4-127.1c-2.4-119.8-9.8-800.1-10.6-1003
		l-0.8-93.7l-198,0.8c-108.4,0.8-207,1.6-218.4,2.4l-20.4,0.8l-1.6,442.4c-0.8,590.7-4.9,696.6-31.8,828.6
		c-14.7,75.8-35.8,116.5-79,156.4c-101.8,95.3-270.5,110-424.5,35.8c-70.9-34.2-114.9-71.7-148.3-128.7
		c-48.9-80.7-50.5-99.4-64.4-866.1c-3.3-174.4-5.7-349.5-6.5-388.6l-0.8-71.7l-32.6-0.8c-17.9-0.8-54.6-1.6-81.5-3.3
		c-26.9-0.8-113.3-3.3-191.5-4.9l-142.6-3.3l1.6,476.6c1.6,823.7,6.5,1385.9,10.6,1393.3c2.4,3.3,83.1,9,179.2,12.2
		c228.1,7.3,235.5,7.3,239.5,3.3c1.6-1.6,4.9-48.9,5.7-105.1c2.4-103.5,4.9-130.4,14.7-130.4c2.4,0,23.6,17.1,45.6,37.5
		C2127.8,4194.5,2329.8,4260.5,2574.3,4216.5z"/>
</g>
</svg>
