<svg id="Capa_1" data-name="Capa 1" xmlns="http://www.w3.org/2000/svg" viewBox="0 0 390.04 351.88"><defs><style>.cls-1{fill:#ffbd7a;}.cls-2{fill:#505050;}.cls-3{fill:#555;}</style></defs><g id="moodle"><g id="Capa_3" data-name="Capa 3"><path class="cls-1" d="M420,382.29V138.16a18.65,18.65,0,0,0-18.65-18.65H269.83a18.65,18.65,0,0,0-18.65,18.65h0a18.65,18.65,0,0,0-18.64-18.65H101a18.65,18.65,0,0,0-18.64,18.65V382.29A18.65,18.65,0,0,0,101,400.94h19a18.65,18.65,0,0,0,18.65-18.65V194.44A18.65,18.65,0,0,1,157.3,175.8h47.13A18.65,18.65,0,0,1,223,194.44V382.29a18.65,18.65,0,0,0,18.65,18.65h19a18.65,18.65,0,0,0,18.65-18.65V194.44a18.65,18.65,0,0,1,18.64-18.64h47.2a18.65,18.65,0,0,1,18.64,18.64h0V382.29a18.65,18.65,0,0,0,18.65,18.65h19A18.65,18.65,0,0,0,420,382.29Z" transform="translate(-29.96 -49.06)"/></g><g id="Capa_5" data-name="Capa 5"><polygon class="cls-2" points="52.96 93.92 162.88 71.02 151.71 16.41 41.37 38.76 52.96 93.92"/><polygon class="cls-3" points="0 47.13 90.96 0 193.08 8.03 102.13 55.17 0 47.13"/></g></g></svg>