<?xml version="1.0" encoding="utf-8"?>
<!-- Generator: Adobe Illustrator 25.0.1, SVG Export Plug-In . SVG Version: 6.00 Build 0)  -->
<svg version="1.1" xmlns="http://www.w3.org/2000/svg" xmlns:xlink="http://www.w3.org/1999/xlink" x="0px" y="0px"
	 viewBox="0 0 450 450" style="enable-background:new 0 0 450 450;" xml:space="preserve">
<style type="text/css">
	.st0{display:none;}
	.st1{display:inline;}
	.st2{fill:#FFBD7A;}
	.st3{fill:#505050;}
	.st4{fill:#555555;}
</style>
<g id="Capa_1" class="st0">
	<g id="moodle" class="st1">
		<g id="Capa_3">
			<path class="st2" d="M420,382.3V138.2c0-10.3-8.3-18.7-18.6-18.7H269.8c-10.3,0-18.6,8.3-18.6,18.7l0,0
				c0-10.3-8.3-18.6-18.6-18.7H101c-10.3,0-18.6,8.4-18.6,18.7v244.1c0,10.3,8.3,18.6,18.6,18.6h19c10.3,0,18.6-8.3,18.6-18.6V194.4
				c0-10.3,8.4-18.6,18.6-18.6h47.1c10.3,0,18.6,8.4,18.6,18.6v187.9c0,10.3,8.3,18.6,18.6,18.6h19c10.3,0,18.6-8.3,18.6-18.6V194.4
				c0-10.3,8.3-18.6,18.6-18.6c0,0,0,0,0.1,0h47.1c10.3,0,18.6,8.3,18.6,18.6v0v187.9c0,10.3,8.3,18.6,18.6,18.6h19
				C411.7,400.9,420,392.6,420,382.3z"/>
		</g>
		<g id="Capa_5">
			<polygon class="st3" points="82.9,143 192.8,120.1 181.7,65.5 71.3,87.8 			"/>
			<polygon class="st4" points="30,96.2 120.9,49.1 223,57.1 132.1,104.2 			"/>
		</g>
	</g>
</g>
<g id="Capa_2">
	<path class="st2" d="M342.2,342.7V234.4c0-22.6-9.3-33.9-28-33.9s-28,11.3-28.1,33.9v108.3H231V234.4c0-22.6-9.2-33.9-27.6-33.9
		c-18.7,0-28,11.3-28,33.9v108.3h-55.2V228c0-23.6,8.2-41.5,24.6-53.6c14.4-10.8,34-16.2,58.6-16.2c24.9,0,43.3,6.4,55.1,19.2
		c10.2-12.8,28.7-19.2,55.6-19.2c24.6,0,44.1,5.4,58.5,16.2c16.4,12.1,24.6,30,24.6,53.6v114.6H342.2z"/>
	<path class="st3" d="M227.4,149.8l54.7-40l-0.7-2.4c-98.8,12.1-143.7,20.7-228.8,70l0.8,2.2l6.8,0.1c-0.6,6.8-1.7,23.6-0.3,48.9
		c-9.4,27.3-0.2,45.9,8.4,66.1c1.4-21,1.2-44-5.2-66.9c-1.4-25.1-0.2-41.7,0.4-48.1l56.4,0.5c-0.2,11,0.4,22.1,1.7,33.1
		c50.4,17.7,101.1-0.1,128-43.7C242,161.2,227.4,149.8,227.4,149.8z"/>
</g>
</svg>
