<?xml version="1.0" encoding="utf-8"?>
<!-- Generator: Adobe Illustrator 25.0.1, SVG Export Plug-In . SVG Version: 6.00 Build 0)  -->
<svg version="1.1" id="Capa_1" xmlns="http://www.w3.org/2000/svg" xmlns:xlink="http://www.w3.org/1999/xlink" x="0px" y="0px"
	 viewBox="0 0 450 450" style="enable-background:new 0 0 450 450;" xml:space="preserve">
<style type="text/css">
	.st0{fill:#FFFFFF;stroke:#000000;stroke-miterlimit:10;}
	.st1{fill:#54FF92;}
</style>
<rect x="131" y="149" class="st0" width="189" height="169"/>
<g id="whatsapp">
	<path class="st1" d="M225.8,81.6c-78.1,0-141.7,63.6-141.7,141.6c0,24.9,6.5,49.3,18.9,70.8l-16.9,62c-0.3,1.2-0.3,2.4,0,3.6
		c1,3.7,4.7,5.9,8.4,4.9l63.6-16.7c20.7,11.3,44.1,17.2,67.7,17.2h0.1c78.1,0,141.7-63.6,141.7-141.6v-0.1
		C367.5,145,304.1,81.6,225.8,81.6z M295.2,273.9c-2.9,8.3-17.4,16.3-23.9,16.9s-12.6,2.9-42.5-8.9c-36-14.2-58.7-51.1-60.5-53.4
		c-1.8-2.4-14.4-19.2-14.4-36.7s9.2-26,12.4-29.5c2.4-2.7,5.8-4.3,9.5-4.4c2.4,0,4.7,0,6.8,0.1c2.5,0.1,5.3,0.2,8,6.2V164
		c3.2,7,10,24.5,10.9,26.3s1.5,3.8,0.3,6.2c-1.2,2.3-1.8,3.8-3.5,5.9c-1.8,2.1-3.7,4.6-5.3,6.2c-1.8,1.8-3.6,3.7-1.5,7.2
		s9.2,15.2,19.7,24.6c13.6,12.1,24.9,15.8,28.4,17.6c3.5,1.8,5.6,1.5,7.7-0.9c2.1-2.3,8.9-10.3,11.2-13.9c2.3-3.5,4.7-2.9,8-1.8
		c3.3,1.2,20.7,9.7,24.2,11.5s5.9,2.6,6.8,4.1C298.1,258.5,298.2,265.6,295.2,273.9z"/>
</g>
</svg>
