<?xml version="1.0" encoding="utf-8"?>
<!-- Generator: Adobe Illustrator 25.0.1, SVG Export Plug-In . SVG Version: 6.00 Build 0)  -->
<svg version="1.1" id="Capa_1" xmlns="http://www.w3.org/2000/svg" xmlns:xlink="http://www.w3.org/1999/xlink" x="0px" y="0px"
	 viewBox="0 0 450 450" style="enable-background:new 0 0 450 450;" xml:space="preserve">
<style type="text/css">
	.st0{fill:#FFFFFF;stroke:#000000;stroke-miterlimit:10;}
	.st1{fill:#FF676B;}
</style>
<rect x="118" y="158" class="st0" width="230" height="152"/>
<g id="youtube">
	<path class="st1" d="M389.2,90H60.8c-17,0-30.8,13.8-30.8,30.8l0,0v208.5c0,17,13.8,30.8,30.8,30.8l0,0h328.5
		c17,0,30.8-13.8,30.8-30.8l0,0V120.8C420,103.8,406.2,90,389.2,90L389.2,90z M276.8,231.3L197,277.2c-3.5,2-7.9,0.8-9.9-2.7
		c-0.6-1.1-1-2.3-1-3.6V179c0-4,3.2-7.2,7.2-7.2c1.3,0,2.5,0.3,3.6,1l79.8,45.9c3.5,2,4.7,6.4,2.6,9.9
		C278.8,229.7,277.9,230.6,276.8,231.3z"/>
</g>
</svg>
